<?xml version="1.0" encoding="UTF-8"?>
<svg width="123px" height="12px" viewBox="0 0 123 12" version="1.1" xmlns="http://www.w3.org/2000/svg" xmlns:xlink="http://www.w3.org/1999/xlink">
    <title>poweredbyHoneywell</title>
    <g id="故障诊断助手" stroke="none" stroke-width="1" fill="none" fill-rule="evenodd">
        <g id="项目概览" transform="translate(-1141.000000, -702.000000)" fill="#303030" fill-rule="nonzero">
            <path d="M1141.848,713.232 L1141.848,709.932 C1142.056,710.34 1142.34,710.642 1142.7,710.838 C1143.06,711.034 1143.472,711.132 1143.936,711.132 C1144.768,711.132 1145.406,710.87 1145.85,710.346 C1146.294,709.822 1146.516,709.072 1146.516,708.096 C1146.516,707.112 1146.312,706.364 1145.904,705.852 C1145.496,705.34 1144.896,705.084 1144.104,705.084 C1143.568,705.084 1143.102,705.2 1142.706,705.432 C1142.31,705.664 1142.016,706.016 1141.824,706.488 L1141.824,706.488 L1141.764,705.216 L1141.176,705.216 L1141.176,713.232 L1141.848,713.232 Z M1143.852,710.58 C1143.564,710.58 1143.298,710.532 1143.054,710.436 C1142.81,710.34 1142.598,710.194 1142.418,709.998 C1142.238,709.802 1142.098,709.55 1141.998,709.242 C1141.898,708.934 1141.848,708.568 1141.848,708.144 C1141.848,707.712 1141.9,707.338 1142.004,707.022 C1142.108,706.706 1142.254,706.446 1142.442,706.242 C1142.63,706.038 1142.85,705.886 1143.102,705.786 C1143.354,705.686 1143.632,705.636 1143.936,705.636 C1145.208,705.636 1145.844,706.456 1145.844,708.096 C1145.844,708.912 1145.68,709.53 1145.352,709.95 C1145.024,710.37 1144.524,710.58 1143.852,710.58 Z M1150.764,711.132 C1151.66,711.132 1152.338,710.886 1152.798,710.394 C1153.258,709.902 1153.488,709.14 1153.488,708.108 C1153.488,707.06 1153.262,706.294 1152.81,705.81 C1152.358,705.326 1151.676,705.084 1150.764,705.084 C1149.884,705.084 1149.208,705.328 1148.736,705.816 C1148.264,706.304 1148.028,707.068 1148.028,708.108 C1148.028,709.156 1148.26,709.922 1148.724,710.406 C1149.188,710.89 1149.868,711.132 1150.764,711.132 Z M1150.764,710.58 C1150.06,710.58 1149.54,710.386 1149.204,709.998 C1148.868,709.61 1148.7,708.984 1148.7,708.12 C1148.7,707.24 1148.866,706.606 1149.198,706.218 C1149.53,705.83 1150.052,705.636 1150.764,705.636 C1151.468,705.636 1151.986,705.83 1152.318,706.218 C1152.65,706.606 1152.816,707.24 1152.816,708.12 C1152.816,708.984 1152.65,709.61 1152.318,709.998 C1151.986,710.386 1151.468,710.58 1150.764,710.58 Z M1157.004,711 L1158.516,706.092 L1160.04,711 L1160.772,711 L1162.68,705.216 L1162.02,705.216 L1160.424,710.244 L1158.888,705.3 L1158.192,705.3 L1156.656,710.232 L1155.036,705.216 L1154.364,705.216 L1156.284,711 L1157.004,711 Z M1166.232,711.132 C1166.808,711.132 1167.302,711.02 1167.714,710.796 C1168.126,710.572 1168.436,710.216 1168.644,709.728 L1168.644,709.728 L1168.14,709.464 C1167.964,709.872 1167.724,710.16 1167.42,710.328 C1167.116,710.496 1166.724,710.58 1166.244,710.58 C1165.596,710.58 1165.102,710.402 1164.762,710.046 C1164.422,709.69 1164.24,709.108 1164.216,708.3 L1164.216,708.3 L1168.656,708.3 L1168.656,708.18 C1168.656,708.14 1168.658,708.098 1168.662,708.054 C1168.666,708.01 1168.668,707.964 1168.668,707.916 C1168.668,707.044 1168.464,706.354 1168.056,705.846 C1167.648,705.338 1167.032,705.084 1166.208,705.084 C1165.344,705.084 1164.684,705.338 1164.228,705.846 C1163.772,706.354 1163.544,707.108 1163.544,708.108 C1163.544,709.148 1163.778,709.912 1164.246,710.4 C1164.714,710.888 1165.376,711.132 1166.232,711.132 Z M1167.996,707.76 L1164.216,707.76 C1164.256,707.024 1164.442,706.484 1164.774,706.14 C1165.106,705.796 1165.576,705.624 1166.184,705.624 C1166.76,705.624 1167.2,705.796 1167.504,706.14 C1167.808,706.484 1167.972,707.024 1167.996,707.76 L1167.996,707.76 Z M1171.152,711 L1171.152,708.084 C1171.192,707.308 1171.4,706.722 1171.776,706.326 C1172.152,705.93 1172.676,705.752 1173.348,705.792 L1173.348,705.792 L1173.348,705.156 C1172.844,705.132 1172.396,705.248 1172.004,705.504 C1171.612,705.76 1171.32,706.144 1171.128,706.656 L1171.128,706.656 L1171.068,705.216 L1170.48,705.216 L1170.48,711 L1171.152,711 Z M1176.996,711.132 C1177.572,711.132 1178.066,711.02 1178.478,710.796 C1178.89,710.572 1179.2,710.216 1179.408,709.728 L1179.408,709.728 L1178.904,709.464 C1178.728,709.872 1178.488,710.16 1178.184,710.328 C1177.88,710.496 1177.488,710.58 1177.008,710.58 C1176.36,710.58 1175.866,710.402 1175.526,710.046 C1175.186,709.69 1175.004,709.108 1174.98,708.3 L1174.98,708.3 L1179.42,708.3 L1179.42,708.18 C1179.42,708.14 1179.422,708.098 1179.426,708.054 C1179.43,708.01 1179.432,707.964 1179.432,707.916 C1179.432,707.044 1179.228,706.354 1178.82,705.846 C1178.412,705.338 1177.796,705.084 1176.972,705.084 C1176.108,705.084 1175.448,705.338 1174.992,705.846 C1174.536,706.354 1174.308,707.108 1174.308,708.108 C1174.308,709.148 1174.542,709.912 1175.01,710.4 C1175.478,710.888 1176.14,711.132 1176.996,711.132 Z M1178.76,707.76 L1174.98,707.76 C1175.02,707.024 1175.206,706.484 1175.538,706.14 C1175.87,705.796 1176.34,705.624 1176.948,705.624 C1177.524,705.624 1177.964,705.796 1178.268,706.14 C1178.572,706.484 1178.736,707.024 1178.76,707.76 L1178.76,707.76 Z M1183.296,711.132 C1183.816,711.132 1184.268,711.018 1184.652,710.79 C1185.036,710.562 1185.32,710.212 1185.504,709.74 L1185.504,709.74 L1185.54,711 L1186.152,711 L1186.152,702.6 L1185.492,702.6 L1185.492,706.296 C1185.284,705.888 1185.002,705.584 1184.646,705.384 C1184.29,705.184 1183.872,705.084 1183.392,705.084 C1182.56,705.084 1181.924,705.344 1181.484,705.864 C1181.044,706.384 1180.824,707.132 1180.824,708.108 C1180.824,709.084 1181.036,709.832 1181.46,710.352 C1181.884,710.872 1182.496,711.132 1183.296,711.132 Z M1183.464,710.58 C1182.152,710.58 1181.496,709.756 1181.496,708.108 C1181.496,707.292 1181.658,706.676 1181.982,706.26 C1182.306,705.844 1182.804,705.636 1183.476,705.636 C1183.764,705.636 1184.03,705.684 1184.274,705.78 C1184.518,705.876 1184.73,706.024 1184.91,706.224 C1185.09,706.424 1185.232,706.676 1185.336,706.98 C1185.44,707.284 1185.492,707.644 1185.492,708.06 C1185.492,708.5 1185.44,708.878 1185.336,709.194 C1185.232,709.51 1185.09,709.77 1184.91,709.974 C1184.73,710.178 1184.516,710.33 1184.268,710.43 C1184.02,710.53 1183.752,710.58 1183.464,710.58 Z M1194.048,711.132 C1194.872,711.132 1195.506,710.87 1195.95,710.346 C1196.394,709.822 1196.616,709.072 1196.616,708.096 C1196.616,707.096 1196.408,706.344 1195.992,705.84 C1195.576,705.336 1194.972,705.084 1194.18,705.084 C1193.652,705.084 1193.196,705.198 1192.812,705.426 C1192.428,705.654 1192.14,706 1191.948,706.464 L1191.948,706.464 L1191.948,702.6 L1191.276,702.6 L1191.276,711 L1191.888,711 L1191.924,709.848 C1192.132,710.296 1192.42,710.622 1192.788,710.826 C1193.156,711.03 1193.576,711.132 1194.048,711.132 Z M1193.952,710.58 C1193.664,710.58 1193.398,710.534 1193.154,710.442 C1192.91,710.35 1192.698,710.204 1192.518,710.004 C1192.338,709.804 1192.198,709.55 1192.098,709.242 C1191.998,708.934 1191.948,708.568 1191.948,708.144 C1191.948,707.712 1192,707.338 1192.104,707.022 C1192.208,706.706 1192.35,706.446 1192.53,706.242 C1192.71,706.038 1192.926,705.886 1193.178,705.786 C1193.43,705.686 1193.708,705.636 1194.012,705.636 C1195.3,705.636 1195.944,706.46 1195.944,708.108 C1195.944,709.756 1195.28,710.58 1193.952,710.58 Z M1198.164,713.52 C1198.372,713.52 1198.572,713.498 1198.764,713.454 C1198.956,713.41 1199.14,713.328 1199.316,713.208 C1199.492,713.088 1199.658,712.922 1199.814,712.71 C1199.97,712.498 1200.116,712.228 1200.252,711.9 L1200.252,711.9 L1203.036,705.216 L1202.34,705.216 L1200.264,710.364 L1198.188,705.216 L1197.48,705.216 L1199.904,711.06 L1199.688,711.672 C1199.568,711.952 1199.444,712.176 1199.316,712.344 C1199.188,712.512 1199.06,712.64 1198.932,712.728 C1198.804,712.816 1198.676,712.874 1198.548,712.902 C1198.42,712.93 1198.292,712.944 1198.164,712.944 C1198.004,712.944 1197.866,712.932 1197.75,712.908 C1197.634,712.884 1197.508,712.848 1197.372,712.8 L1197.372,712.8 L1197.264,713.364 C1197.432,713.428 1197.586,713.47 1197.726,713.49 C1197.866,713.51 1198.012,713.52 1198.164,713.52 Z M1207.992,711 L1207.992,707.076 L1213.236,707.076 L1213.236,711 L1213.932,711 L1213.932,702.6 L1213.236,702.6 L1213.236,706.476 L1207.992,706.476 L1207.992,702.6 L1207.296,702.6 L1207.296,711 L1207.992,711 Z M1218.804,711.132 C1219.7,711.132 1220.378,710.886 1220.838,710.394 C1221.298,709.902 1221.528,709.14 1221.528,708.108 C1221.528,707.06 1221.302,706.294 1220.85,705.81 C1220.398,705.326 1219.716,705.084 1218.804,705.084 C1217.924,705.084 1217.248,705.328 1216.776,705.816 C1216.304,706.304 1216.068,707.068 1216.068,708.108 C1216.068,709.156 1216.3,709.922 1216.764,710.406 C1217.228,710.89 1217.908,711.132 1218.804,711.132 Z M1218.804,710.58 C1218.1,710.58 1217.58,710.386 1217.244,709.998 C1216.908,709.61 1216.74,708.984 1216.74,708.12 C1216.74,707.24 1216.906,706.606 1217.238,706.218 C1217.57,705.83 1218.092,705.636 1218.804,705.636 C1219.508,705.636 1220.026,705.83 1220.358,706.218 C1220.69,706.606 1220.856,707.24 1220.856,708.12 C1220.856,708.984 1220.69,709.61 1220.358,709.998 C1220.026,710.386 1219.508,710.58 1218.804,710.58 Z M1224.132,711 L1224.132,708 C1224.172,707.28 1224.374,706.71 1224.738,706.29 C1225.102,705.87 1225.608,705.66 1226.256,705.66 C1226.776,705.66 1227.182,705.798 1227.474,706.074 C1227.766,706.35 1227.912,706.828 1227.912,707.508 L1227.912,707.508 L1227.912,711 L1228.584,711 L1228.584,707.34 C1228.584,705.836 1227.876,705.084 1226.46,705.084 C1225.932,705.084 1225.464,705.2 1225.056,705.432 C1224.648,705.664 1224.34,706.028 1224.132,706.524 L1224.132,706.524 L1224.048,705.216 L1223.46,705.216 L1223.46,711 L1224.132,711 Z M1233.12,711.132 C1233.696,711.132 1234.19,711.02 1234.602,710.796 C1235.014,710.572 1235.324,710.216 1235.532,709.728 L1235.532,709.728 L1235.028,709.464 C1234.852,709.872 1234.612,710.16 1234.308,710.328 C1234.004,710.496 1233.612,710.58 1233.132,710.58 C1232.484,710.58 1231.99,710.402 1231.65,710.046 C1231.31,709.69 1231.128,709.108 1231.104,708.3 L1231.104,708.3 L1235.544,708.3 L1235.544,708.18 C1235.544,708.14 1235.546,708.098 1235.55,708.054 C1235.554,708.01 1235.556,707.964 1235.556,707.916 C1235.556,707.044 1235.352,706.354 1234.944,705.846 C1234.536,705.338 1233.92,705.084 1233.096,705.084 C1232.232,705.084 1231.572,705.338 1231.116,705.846 C1230.66,706.354 1230.432,707.108 1230.432,708.108 C1230.432,709.148 1230.666,709.912 1231.134,710.4 C1231.602,710.888 1232.264,711.132 1233.12,711.132 Z M1234.884,707.76 L1231.104,707.76 C1231.144,707.024 1231.33,706.484 1231.662,706.14 C1231.994,705.796 1232.464,705.624 1233.072,705.624 C1233.648,705.624 1234.088,705.796 1234.392,706.14 C1234.696,706.484 1234.86,707.024 1234.884,707.76 L1234.884,707.76 Z M1236.984,713.52 C1237.192,713.52 1237.392,713.498 1237.584,713.454 C1237.776,713.41 1237.96,713.328 1238.136,713.208 C1238.312,713.088 1238.478,712.922 1238.634,712.71 C1238.79,712.498 1238.936,712.228 1239.072,711.9 L1239.072,711.9 L1241.856,705.216 L1241.16,705.216 L1239.084,710.364 L1237.008,705.216 L1236.3,705.216 L1238.724,711.06 L1238.508,711.672 C1238.388,711.952 1238.264,712.176 1238.136,712.344 C1238.008,712.512 1237.88,712.64 1237.752,712.728 C1237.624,712.816 1237.496,712.874 1237.368,712.902 C1237.24,712.93 1237.112,712.944 1236.984,712.944 C1236.824,712.944 1236.686,712.932 1236.57,712.908 C1236.454,712.884 1236.328,712.848 1236.192,712.8 L1236.192,712.8 L1236.084,713.364 C1236.252,713.428 1236.406,713.47 1236.546,713.49 C1236.686,713.51 1236.832,713.52 1236.984,713.52 Z M1244.736,711 L1246.248,706.092 L1247.772,711 L1248.504,711 L1250.412,705.216 L1249.752,705.216 L1248.156,710.244 L1246.62,705.3 L1245.924,705.3 L1244.388,710.232 L1242.768,705.216 L1242.096,705.216 L1244.016,711 L1244.736,711 Z M1253.964,711.132 C1254.54,711.132 1255.034,711.02 1255.446,710.796 C1255.858,710.572 1256.168,710.216 1256.376,709.728 L1256.376,709.728 L1255.872,709.464 C1255.696,709.872 1255.456,710.16 1255.152,710.328 C1254.848,710.496 1254.456,710.58 1253.976,710.58 C1253.328,710.58 1252.834,710.402 1252.494,710.046 C1252.154,709.69 1251.972,709.108 1251.948,708.3 L1251.948,708.3 L1256.388,708.3 L1256.388,708.18 C1256.388,708.14 1256.39,708.098 1256.394,708.054 C1256.398,708.01 1256.4,707.964 1256.4,707.916 C1256.4,707.044 1256.196,706.354 1255.788,705.846 C1255.38,705.338 1254.764,705.084 1253.94,705.084 C1253.076,705.084 1252.416,705.338 1251.96,705.846 C1251.504,706.354 1251.276,707.108 1251.276,708.108 C1251.276,709.148 1251.51,709.912 1251.978,710.4 C1252.446,710.888 1253.108,711.132 1253.964,711.132 Z M1255.728,707.76 L1251.948,707.76 C1251.988,707.024 1252.174,706.484 1252.506,706.14 C1252.838,705.796 1253.308,705.624 1253.916,705.624 C1254.492,705.624 1254.932,705.796 1255.236,706.14 C1255.54,706.484 1255.704,707.024 1255.728,707.76 L1255.728,707.76 Z M1259.988,711 L1259.988,710.448 L1259.58,710.448 C1259.3,710.448 1259.108,710.394 1259.004,710.286 C1258.9,710.178 1258.848,709.98 1258.848,709.692 L1258.848,709.692 L1258.848,702.6 L1258.176,702.6 L1258.176,709.776 C1258.176,710.216 1258.286,710.53 1258.506,710.718 C1258.726,710.906 1259.032,711 1259.424,711 L1259.424,711 L1259.988,711 Z M1263.108,711 L1263.108,710.448 L1262.7,710.448 C1262.42,710.448 1262.228,710.394 1262.124,710.286 C1262.02,710.178 1261.968,709.98 1261.968,709.692 L1261.968,709.692 L1261.968,702.6 L1261.296,702.6 L1261.296,709.776 C1261.296,710.216 1261.406,710.53 1261.626,710.718 C1261.846,710.906 1262.152,711 1262.544,711 L1262.544,711 L1263.108,711 Z" id="poweredbyHoneywell"></path>
        </g>
    </g>
</svg>